<svg width="334" height="543" viewBox="0 0 334 543" fill="none" xmlns="http://www.w3.org/2000/svg">
<path d="M263.56 163.211C263.56 163.211 295.343 240.399 263.56 313.693C232.623 385.037 151.345 440.824 170.157 466.121C155.887 433.691 246.696 410.988 294.044 336.395C326.395 285.433 319.341 201.48 263.56 163.211Z" fill="black"/>
<path d="M318.046 252.073C318.046 252.073 344.639 336.395 222.048 413.583C211.019 422.015 203.886 428.5 196.751 442.769C218.156 412.284 265.506 416.176 310.908 351.313C356.314 286.451 318.046 252.073 318.046 252.073Z" fill="black"/>
<path d="M209.724 339.637C146.291 411.37 119.563 475.85 119.563 475.85C119.563 475.85 130.972 416.314 197.399 340.936C275.709 252.073 238.937 166.068 226.747 143.176C225.621 141.174 224.487 139.201 223.345 137.265C223.345 137.265 224.699 139.332 226.747 143.176C255.027 193.478 276.472 264.157 209.724 339.637ZM111.78 528.389C72.2133 467.42 111.131 380.501 200.641 295.532C200.641 295.532 69.6187 429.797 111.78 528.389ZM103.024 161.265C121.185 143.102 134.481 140.185 145.184 151.536C123.456 143.752 103.024 161.265 103.024 161.265ZM124.303 163.581C126.177 162.533 128.337 162.824 129.123 164.23C129.909 165.638 129.027 167.629 127.149 168.677C125.273 169.725 123.115 169.434 122.328 168.026C121.541 166.62 122.425 164.63 124.303 163.581ZM107.672 180.508C107.672 180.508 108.495 176.977 110.331 173.201C112.468 176.276 116.023 178.292 120.049 178.292C126.375 178.292 131.524 173.329 131.856 167.085C133.267 168.028 134.049 168.832 134.049 168.832C134.049 168.832 131.023 185.265 107.672 180.508ZM83.8893 308.504C80.3213 327.962 81.2947 372.07 71.564 379.53C83.24 343.854 74.484 325.045 82.2667 301.694C90.0507 278.342 128.32 220.94 128.32 220.94C128.32 220.94 87.456 289.046 83.8893 308.504ZM50.808 346.774C40.1067 353.584 41.0787 371.421 52.4307 381.15C31.6733 375.961 33.62 337.044 47.5653 332.504C61.5107 327.962 69.944 346.774 69.944 346.774C69.944 346.774 61.5107 339.962 50.808 346.774ZM24.2147 327.316C30.7013 304.612 50.16 188.506 50.16 188.506C50.16 188.506 42.376 278.668 24.2147 327.316ZM88.6453 58.349C88.6453 58.349 79.9973 105.482 37.188 136.617C54.916 121.482 82.1587 82.5637 88.6453 58.349ZM55.3493 44.5117C54.376 56.8344 39.7813 71.105 39.7813 71.105C39.7813 71.105 50.16 51.6463 52.1067 46.133C54.052 40.6197 43.3493 23.7543 43.3493 23.7543C43.3493 23.7543 37.512 36.0784 36.5387 48.4024C34.9173 38.025 42.052 14.3503 42.052 14.3503C42.052 14.3503 56.3213 32.1864 55.3493 44.5117ZM103.996 106.78C118.915 89.2664 115.024 76.2944 115.024 76.2944C127.347 108.077 68.9707 124.293 68.3213 158.022C55.3493 139.86 89.0787 124.293 103.996 106.78ZM133.508 19.8624C144.921 26.657 144.268 58.489 143.756 68.6344L143.417 68.9864C142.879 59.9397 140.685 31.4651 134.157 26.0264C127.023 45.4837 130.265 74.0237 138.697 83.7531C124.705 72.9211 122.807 39.9704 133.508 19.8624ZM225.588 106.986C234.812 105.056 248.511 104.448 258.371 113.914C238.263 76.2943 194.805 73.0504 194.805 73.0504C194.805 73.0504 210.371 72.4023 220.751 73.6984C194.492 55.4344 160.707 59.269 152.975 60.4517C153.508 49.1357 152.581 30.9757 143.996 13.8051C130.159 -13.8683 123.239 8.61707 123.239 8.61707C123.239 8.61707 116.752 22.4557 114.591 35.8597C114.44 36.7931 114.301 37.6557 114.171 38.4637C111.587 29.669 105.139 18.0317 89.0787 12.5104C97.7253 18.997 105.509 38.0224 105.509 38.0224C105.509 38.0224 89.9427 20.2944 62.7 30.6717C69.744 30.3197 70.1907 46.3144 70.1133 52.2637C70.092 52.273 70.072 52.281 70.052 52.2917C51.4573 14.2383 43.6733 5.15839 40.6467 6.02234C37.62 6.8877 19.8907 54.021 38.052 85.1557C18.1613 112.83 13.8373 128.83 0 133.154C8.808 132.78 17.04 129.316 23.5507 125.513C43.828 110.388 55.3493 80.4024 55.3493 80.4024C56.1333 90.5877 46.2693 113.55 25.6347 125.35C17.552 134.021 9.14801 147.448 13.8373 162.992C18.5933 147.857 25.9453 143.532 25.9453 143.532C25.9453 143.532 11.2427 159.532 17.728 176.829C24.2147 194.126 29.836 221.368 29.836 221.368C29.836 221.368 18.5933 274.124 19.4573 294.014C3.45867 326.88 -9.94667 348.934 17.296 371.42C22.0533 396.066 26.3773 401.257 36.3227 401.257L37.8347 401.258C76.8453 414.261 90.476 353.681 92.14 345.433C92.2 345.124 92.2613 344.816 92.3213 344.502C92.3213 344.502 92.2613 344.834 92.14 345.433C83.2867 391.21 62.9627 415.753 37.8347 401.258C37.8347 401.258 39.1333 413.906 61.8347 410.988C84.5373 408.069 90.376 365.258 98.4827 348.72C106.591 332.177 127.347 311.746 136.427 283.208C140.756 279.478 145.32 276.184 149.789 272.297C197.052 206.548 166.264 95.7531 166.264 95.7531C194.887 188.512 172.256 241.412 163.025 257.658C126.871 325.525 17.0707 494.56 119.563 542.01C88.4307 462.233 231.183 390.896 261.341 297.498C288.065 214.736 258.26 137.33 225.588 106.986Z" fill="black"/>
</svg>
