<svg width="537" height="366" viewBox="0 0 537 366" fill="none" xmlns="http://www.w3.org/2000/svg">
<path d="M155.473 176.031C155.314 175.946 155.151 175.868 154.971 175.801C154.855 175.755 154.731 175.713 154.604 175.671C154.586 175.671 154.572 175.667 154.558 175.653C154.982 175.611 155.406 175.568 155.826 175.515C155.823 175.558 155.823 175.6 155.823 175.649C155.823 175.787 155.844 175.921 155.886 176.059C155.9 176.102 155.9 176.151 155.918 176.193C155.939 176.243 155.964 176.285 155.985 176.335C155.922 176.285 155.84 176.246 155.77 176.204C155.674 176.144 155.579 176.084 155.473 176.031ZM52.0908 264.253C52.1438 262.43 52.1968 260.597 52.2533 258.756C52.3133 258.643 52.3451 258.53 52.2815 258.467C52.2744 258.463 52.2674 258.46 52.2639 258.456C52.2957 257.456 52.3345 256.464 52.3734 255.464C52.5959 255.319 52.8396 254.963 52.7019 254.832C52.6136 254.751 52.504 254.705 52.4122 254.627C52.4793 253.129 52.5606 251.635 52.663 250.145C52.8961 249.982 53.1257 249.611 52.9809 249.523C52.8961 249.477 52.8043 249.463 52.7195 249.421C52.9032 246.952 53.154 244.507 53.5037 242.098C53.8534 244.949 55.2627 245.366 56.6968 247.276C58.4736 249.647 56.107 251.127 57.8802 254.39C59.6604 257.651 57.8801 259.134 54.3232 262.395C53.6414 263.023 52.875 263.638 52.0908 264.253ZM183.526 174.339C183.116 174.438 182.717 174.558 182.325 174.728C182.717 174.558 183.116 174.431 183.526 174.339ZM175.444 157.624C175.402 157.78 175.363 157.935 175.292 158.098C175.169 158.38 174.996 158.589 174.801 158.769C175.017 158.394 175.229 158.013 175.444 157.624ZM287.926 187.917C287.533 189.224 286.982 190.22 285.838 190.874C285.029 191.34 283.913 191.626 282.334 191.721C278.53 191.944 279.876 192.618 280.543 194.402C281.214 196.193 281.885 197.758 277.636 206.03C274.093 206.921 271.659 206.935 274.443 210.633C274.415 210.64 274.383 210.64 274.355 210.644C274.386 210.647 274.429 210.654 274.457 210.661C274.475 210.682 274.485 210.7 274.506 210.725C268.018 210.725 264.524 211.279 263.161 212.194C263.143 212.201 263.129 212.212 263.115 212.226C262.945 212.339 262.804 212.459 262.705 212.593C262.702 212.6 261.826 212.6 261.822 212.6C261.716 212.738 260.741 212.879 260.741 213.031C260.741 213.035 260.741 213.035 260.741 213.042C260.741 213.176 261.589 213.31 261.614 213.455C261.624 213.494 262.076 213.533 262.084 213.575C262.115 213.685 262.384 213.801 262.451 213.921C262.476 213.96 262.599 214.006 262.627 214.049C262.726 214.204 262.896 214.363 263.044 214.529C265.054 216.768 261.508 218.333 254.577 219.004C247.64 219.675 248.548 221.018 250.339 222.583C252.126 224.147 245.199 226.606 239.608 228.619C238.05 229.181 237.015 229.725 236.383 230.251C236.344 230.283 236.302 230.315 236.266 230.35C236.083 230.52 235.934 230.682 235.832 230.848C235.814 230.876 235.807 230.901 235.793 230.933C235.705 231.088 235.652 231.24 235.638 231.392C235.634 231.41 235.627 231.427 235.627 231.441C235.616 231.604 235.652 231.759 235.712 231.918C235.726 231.95 235.74 231.985 235.754 232.017C235.832 232.173 235.934 232.324 236.072 232.48C236.09 232.498 236.111 232.515 236.132 232.536C236.27 232.678 236.436 232.815 236.623 232.953C236.658 232.981 236.694 233.006 236.733 233.038C236.941 233.179 237.174 233.321 237.435 233.469C237.492 233.494 237.548 233.525 237.605 233.557C237.88 233.698 238.177 233.843 238.499 233.988C242.077 235.549 236.037 236.669 229.332 239.58C222.621 242.487 223.292 242.935 224.408 244.726C225.528 246.51 218.594 254.56 218.594 254.56C218.594 254.56 216.358 250.088 212.558 248.078C211.993 247.775 211.523 247.548 211.088 247.351C210.986 247.308 210.883 247.269 210.788 247.231C210.467 247.103 210.177 247.005 209.916 246.952C209.863 246.941 209.788 246.902 209.735 246.899C209.753 246.902 209.757 246.916 209.771 246.923C208.323 246.683 207.655 247.736 206.295 250.759C205.627 250.805 204.886 250.883 204.084 250.999C203.777 251.049 203.42 251.466 203.088 251.526C202.565 251.621 202.067 252.158 201.498 252.158C201.502 252.158 201.502 252.158 201.502 252.158C198.111 252.158 193.886 253.797 189.157 255.567C189.584 254.175 189.948 252.624 190.209 251.243C190.428 251.112 190.704 250.671 190.576 250.508C190.506 250.424 190.421 250.293 190.347 250.215C191.156 245.288 190.937 242.211 189.679 236.69C189.718 236.577 189.729 238.365 189.637 238.365C189.633 238.365 189.626 238.365 189.623 238.365C189.397 235.606 189.153 234.49 188.867 233.483C189.079 233.296 189.277 231.985 189.079 231.904C188.923 231.855 188.771 231.293 188.62 231.229C188.231 229.961 187.804 228.407 187.32 227.061C187.366 226.948 187.383 226.726 187.302 226.733C187.281 226.733 187.263 226.68 187.242 226.68C186.967 225.906 186.705 225.126 186.394 224.331C185.197 221.367 183.996 218.602 183.056 215.977C183.056 215.967 183.049 215.952 183.049 215.942C182.071 213.208 181.4 210.598 181.315 208.04C181.34 208.033 181.361 208.026 181.382 208.026C181.622 207.984 182.085 207.26 181.735 207.32C181.587 207.344 181.446 207.369 181.301 207.394C181.311 206.076 181.502 204.762 181.887 203.445C181.947 203.342 181.968 203.265 181.958 203.197C182.3 202.113 182.77 201.018 183.427 199.916C183.812 199.535 184.151 199.174 184.462 198.81C184.558 198.704 184.632 198.602 184.72 198.5C184.932 198.245 185.126 197.991 185.303 197.747C185.377 197.641 185.451 197.539 185.522 197.433C185.762 197.539 185.995 197.606 186.228 197.645C186.14 198.404 186.045 199.867 185.946 201.078C185.801 202.908 187.224 205.267 188.941 205.267C188.938 205.267 188.934 205.267 188.927 205.267C188.976 205.267 189.026 204.78 189.075 204.798C189.287 204.882 189.496 204.702 189.715 204.769C189.796 204.798 189.881 204.695 189.965 204.727C190.234 204.808 190.495 204.819 190.76 204.886C190.795 204.893 190.827 204.868 190.863 204.879C191.17 204.949 191.47 204.999 191.763 205.059C191.813 205.066 191.859 205.066 191.908 205.073C192.117 205.108 192.325 206.348 192.526 206.384C194.268 207.842 196.988 210.043 199.312 210.043V210.047C199.368 210.047 199.421 208.846 199.478 208.856C199.626 208.874 199.764 208.28 199.909 208.295C200.092 208.316 200.265 208.037 200.435 208.047C200.594 208.061 200.739 207.924 200.884 207.938C201.043 207.952 201.184 207.881 201.329 207.892C201.579 207.906 201.809 207.881 202.028 207.895C202.141 207.899 202.265 209.344 202.371 209.344C202.498 209.344 202.6 210.785 202.713 210.785C202.802 210.785 202.89 210.785 202.971 210.785C203.067 210.785 203.134 210.785 203.208 210.785C203.286 210.785 203.342 210.785 203.399 210.785C203.448 210.785 203.483 210.785 203.512 210.785C203.579 210.785 203.618 210.785 203.618 210.785C203.618 210.785 200.227 207.192 196.659 205.225C193.911 203.72 195.281 197.161 196.062 194.547C196.175 194.452 196.295 193.996 196.401 193.869C196.61 193.554 196.761 193.007 196.875 192.622C197.154 193.71 198.485 193.145 201.813 191.93C203.72 191.227 205.493 190.623 206.79 189.683C206.595 190.658 207.408 191.357 208.746 191.326C208.792 191.421 208.842 191.502 208.891 191.594C209.064 192.064 209.259 192.477 209.467 192.774C209.506 192.823 209.548 192.841 209.591 192.873C210.011 193.615 210.502 194.402 211.113 195.19C211.11 195.19 211.109 195.19 211.109 195.19C211.12 195.204 211.134 195.215 211.145 195.225C211.318 195.451 211.505 195.674 211.699 195.903C211.763 195.971 211.834 196.045 211.901 196.115C212.049 196.278 212.197 196.437 212.356 196.596C212.445 196.684 212.537 196.765 212.628 196.847C212.78 196.988 212.929 197.133 213.091 197.27C213.194 197.362 213.299 197.443 213.409 197.532C213.571 197.659 213.738 197.79 213.914 197.92C214.031 198.002 214.147 198.086 214.267 198.168C214.448 198.288 214.638 198.408 214.829 198.521C214.96 198.602 215.083 198.68 215.218 198.75C215.426 198.867 215.641 198.98 215.864 199.086C215.995 199.153 216.122 199.217 216.26 199.28C216.514 199.39 216.779 199.496 217.047 199.602C217.167 199.651 217.28 199.697 217.404 199.739C218.206 200.018 219.078 200.252 220.039 200.418C220.18 200.442 220.336 200.46 220.481 200.488C220.823 200.534 221.169 200.58 221.537 200.619C221.727 200.637 221.932 200.644 222.13 200.661C222.469 200.683 222.808 200.704 223.165 200.707C223.388 200.714 223.621 200.714 223.85 200.714C224.204 200.714 224.564 200.707 224.942 200.693C225.189 200.676 225.436 200.665 225.694 200.644C226.076 200.619 226.464 200.58 226.863 200.538C227.128 200.513 227.397 200.478 227.672 200.442C228.089 200.393 228.527 200.322 228.969 200.252C229.241 200.202 229.513 200.163 229.795 200.107C230.29 200.018 230.802 199.902 231.318 199.782C231.568 199.729 231.812 199.679 232.066 199.623C232.854 199.432 233.663 199.22 234.507 198.98C255.146 190.771 272.701 183.834 290.26 177.32C289.656 180.291 288.424 186.257 287.926 187.917ZM147.275 180.054C142.951 181.916 132.647 186.232 120.242 190.715C121.634 188.927 123.036 187.461 123.916 184.06C125.477 178.051 126.364 177.161 126.364 177.161C126.364 177.161 130.143 181.834 139.482 175.83C143.311 175.911 147.518 176.091 151.57 175.893C148.786 176.921 146.882 178.299 147.275 180.054ZM536.642 77.7355C536.649 77.7602 536.66 77.7778 536.664 77.8026C536.649 77.686 536.628 77.5907 536.614 77.4776C536.473 76.3473 536.31 75.2594 536.12 74.235C536.102 74.1397 536.077 74.0549 536.06 73.9595C535.869 72.9952 535.66 72.0839 535.438 71.2256C535.396 71.0631 535.36 70.9041 535.318 70.7522C535.078 69.855 534.827 69.0178 534.573 68.2408C534.534 68.1277 534.502 68.0288 534.463 67.9193C534.219 67.2129 533.983 66.5629 533.75 65.9625C533.714 65.8812 533.682 65.7965 533.651 65.7223C533.4 65.0865 533.16 64.5248 532.93 64.0303C532.888 63.942 532.856 63.8679 532.813 63.7795C532.605 63.338 532.421 62.9495 532.255 62.6316C532.245 62.6139 532.231 62.5892 532.224 62.5751C533.873 59.721 533.025 54.9207 529.355 49.1242C529.405 49.1737 529.451 49.2267 529.493 49.2761C529.232 48.8593 528.967 48.446 528.674 48.0186C523.933 41.0601 511.111 34.3629 506.445 32.0811C506.735 27.521 505.343 22.1944 500.652 18.761C500.129 18.3689 499.543 18.0051 498.921 17.6483C498.897 17.6377 498.883 17.6236 498.861 17.6095C498.872 17.6201 498.876 17.6237 498.883 17.6307C494.577 15.2041 487.971 13.7735 481.426 13.6393C478.996 11.4351 472.218 5.76233 463.73 2.69989C463.034 2.45261 462.37 2.24066 461.73 2.06406C461.713 2.06406 461.688 2.0499 461.667 2.04639C461.677 2.0499 461.677 2.04993 461.688 2.05698C459.24 1.39291 457.241 1.29752 455.57 1.59424C455.291 1.513 454.962 1.42114 454.602 1.32578C454.567 1.31873 454.542 1.31516 454.503 1.30103C453.624 1.07849 452.515 0.845428 451.172 0.637024C451.049 0.619354 450.918 0.601715 450.794 0.580536C450.24 0.499298 449.65 0.425049 449.018 0.357941C448.841 0.333221 448.657 0.319122 448.467 0.294403C447.824 0.237885 447.142 0.177856 446.418 0.131927C446.287 0.121338 446.185 0.114227 446.051 0.103638C446.058 0.103638 446.058 0.107178 446.061 0.114258C441.056 -0.178925 434.338 0.0259399 425.482 1.513C423.197 2.03226 420.714 3.44165 420.714 5.16537C420.714 5.15125 420.714 5.14417 420.714 5.1265C420.714 5.17242 420.604 5.22546 420.583 5.27136C420.392 5.62106 420.201 5.98483 420.06 6.35925C420.007 6.50052 419.926 6.63828 419.88 6.78308C419.756 7.16104 419.672 7.54959 419.598 7.94168C419.573 8.08652 420.159 8.23486 420.141 8.38321C420.088 8.77884 420.714 9.16388 420.714 9.55594C420.714 9.57715 420.714 9.59833 420.714 9.62305C417.955 9.89502 417.238 10.3578 416.489 11.0748C414.123 13.1024 412.353 15.8751 411.498 18.1111C411.487 18.1322 411.325 18.1534 411.318 18.1711C410.986 19.0506 410.664 19.8312 410.498 20.4635C408.496 19.7676 404.85 19.2449 402.576 18.8635C397.122 17.9486 393.13 18.33 387.616 18.9835C387.616 18.9764 387.616 18.9764 387.616 18.9764C387.616 18.9835 388.987 18.9906 388.952 19.0012C388.517 19.086 388.828 19.1743 388.439 19.2626C388.422 19.2626 388.775 19.2697 388.761 19.2697C387.359 19.6017 386.408 19.9549 385.614 20.2375C379.09 18.9765 371.796 19.2697 364.141 21.2124C360.718 22.0884 358.087 23.2293 355.925 23.2293C355.922 23.2293 355.922 23.2293 355.914 23.2293C353.071 23.2293 351.22 26.101 350.118 26.8392C336.353 26.2211 323.442 35.3379 318.55 39.4141C316.509 41.1166 314.531 42.7202 312.86 43.8682C312.796 43.9141 312.743 44.0237 312.687 44.066C312.245 44.3627 311.828 44.6806 311.429 44.9385C311.323 45.0056 311.214 45.1081 311.108 45.1681C310.712 45.4225 310.345 45.6662 310.013 45.8746C309.921 45.9311 309.843 45.9805 309.762 46.0335C309.363 46.0194 308.964 45.984 308.572 45.984C290.052 46.8989 247.686 68.4209 206.729 107.901C206.729 107.901 200.061 114.167 191.785 123.729C191.785 123.718 191.785 123.708 191.785 123.697C191.785 123.573 191.926 123.446 191.926 123.319C191.926 123.136 191.982 122.959 191.968 122.782C191.965 122.659 191.986 122.539 191.972 122.418C191.947 122.224 191.922 122.037 191.88 121.85C191.855 121.758 191.848 121.659 191.816 121.557C191.735 121.292 191.636 121.03 191.502 120.79C191.467 120.723 191.414 120.666 191.371 120.603C191.262 120.43 191.142 120.257 190.997 120.094C190.923 120.02 190.831 119.946 190.75 119.879C190.608 119.748 190.456 119.624 190.287 119.518C190.181 119.451 190.064 119.391 189.948 119.335C189.856 119.285 189.789 119.236 189.69 119.19C189.686 119.204 189.679 119.215 189.676 119.222C188.796 118.851 187.655 118.657 186.098 118.777C185.656 118.816 185.211 118.833 184.766 118.851C175.43 119.282 166.024 116.622 164.282 115.184C159.92 111.592 160.174 112.62 157.606 115.439C155.038 118.261 152.732 118.519 142.721 118.519C133.481 118.519 125.011 120.317 121.415 121.599C117.826 122.885 115.77 122.885 112.948 121.86C110.122 120.832 108.07 126.219 115.512 132.122C115.512 132.122 115.449 132.104 115.332 132.069C115.283 132.054 115.223 132.04 115.152 132.026C115.043 131.991 114.926 131.959 114.76 131.917C114.644 131.888 114.513 131.857 114.368 131.821C114.206 131.782 114.036 131.751 113.842 131.701C113.651 131.659 113.446 131.62 113.22 131.574C113.019 131.535 112.803 131.496 112.574 131.458C112.309 131.412 112.044 131.362 111.744 131.313C111.507 131.277 111.242 131.242 110.984 131.2C110.642 131.154 110.313 131.104 109.939 131.062C109.705 131.034 109.441 131.012 109.197 130.981C108.395 130.903 107.526 130.836 106.59 130.786C106.279 130.769 105.986 130.744 105.661 130.737C105.188 130.716 104.675 130.716 104.167 130.712C103.785 130.705 103.411 130.698 103.012 130.705C102.485 130.712 101.938 130.726 101.383 130.744C100.956 130.762 100.532 130.779 100.084 130.804C99.5114 130.836 98.932 130.878 98.3316 130.928C97.8653 130.967 97.3849 131.016 96.901 131.072C96.2829 131.133 95.6647 131.2 95.0183 131.291C94.5167 131.355 93.9975 131.443 93.4782 131.525C92.8142 131.634 92.1607 131.729 91.4719 131.857C90.9138 131.966 90.3275 132.104 89.7517 132.228C88.5578 132.482 87.3286 132.782 86.0711 133.121C85.3929 133.305 84.7253 133.478 84.0259 133.683C83.3548 133.891 82.6696 134.124 81.9843 134.35C81.4686 134.52 80.974 134.665 80.4477 134.848C80.5078 134.834 80.5643 134.827 80.6208 134.817C77.0638 136.064 73.3409 137.625 69.4448 139.663C66.6331 141.132 63.9239 142.609 61.3135 144.092C60.2856 144.647 59.6604 145 59.6604 145C59.4732 145.117 59.2895 145.244 59.1059 145.367C22.2291 166.847 5.57803 190.845 0.300834 242.451C-0.564569 252.847 0.491573 259.848 2.76988 267.647C2.76988 267.643 2.76634 267.636 2.76634 267.636C2.91823 268.163 3.08424 268.696 3.25026 269.233C3.40215 269.731 3.56462 270.25 3.72711 270.762C3.88959 271.257 4.04501 271.751 4.21102 272.253C4.36998 272.733 4.53953 273.235 4.70555 273.729C4.82565 274.086 4.94575 274.45 5.06938 274.814C5.27779 275.421 5.49323 276.043 5.70516 276.675C5.78641 276.905 5.86767 277.138 5.94891 277.371C6.33393 278.484 6.72954 279.632 7.13928 280.819C7.21699 281.045 7.29467 281.271 7.37238 281.5C7.6373 282.27 7.91283 283.079 8.18835 283.885C8.29785 284.213 8.40737 284.521 8.51687 284.853C8.89129 285.958 9.26923 287.085 9.65425 288.265C11.2897 293.242 12.6284 297.018 13.7552 299.805C13.8258 299.981 13.8894 300.126 13.96 300.299C14.1614 300.79 14.3663 302.404 14.557 302.839C14.6524 303.061 14.7407 304.563 14.8325 304.563C14.829 304.563 14.829 304.563 14.8255 304.563C14.9491 304.563 15.0656 303.944 15.1857 304.181C15.214 304.252 15.2529 303.775 15.2882 303.838C15.3058 303.877 15.327 303.63 15.3447 303.669C15.5213 304.011 15.6944 304.185 15.8569 304.474C15.8887 304.531 15.9205 304.531 15.9522 304.577C15.984 304.633 16.0123 304.633 16.0476 304.693C16.1995 304.937 16.3443 305.142 16.4856 305.343C16.5103 305.375 16.5351 305.414 16.5598 305.453C16.5774 305.467 16.5916 305.481 16.6092 305.502C16.7576 305.696 16.9024 305.855 17.0402 306C17.0649 306.014 17.0967 306.06 17.1179 306.074C17.1462 306.106 17.1674 306.113 17.1956 306.138C17.3263 306.247 17.457 306.343 17.5771 306.417C17.5947 306.42 17.6159 306.445 17.6336 306.452C17.6477 306.459 17.6583 306.459 17.6689 306.463C17.7996 306.523 17.9268 306.548 18.0504 306.562C18.0716 306.562 18.0928 306.579 18.114 306.579C18.1352 306.579 18.1564 306.565 18.1776 306.565C18.2942 306.558 18.4142 306.537 18.5273 306.488C18.5379 306.481 18.552 306.484 18.5626 306.477C18.5732 306.47 18.5802 306.463 18.5873 306.459C18.7074 306.399 18.824 306.307 18.9405 306.205C18.9582 306.187 18.9759 306.187 18.9935 306.17C19.0112 306.149 19.0289 306.12 19.05 306.103C19.1666 305.983 19.2832 305.848 19.3962 305.689C19.3997 305.682 19.4068 305.679 19.4103 305.672C19.4139 305.665 19.4174 305.661 19.4209 305.654C19.5375 305.484 19.6576 305.287 19.7742 305.078C19.806 305.025 19.8413 304.965 19.873 304.909C19.9931 304.69 20.1132 304.449 20.2333 304.195C22.0736 300.299 21.7063 300.299 20.9681 296.982C20.2298 293.662 20.6007 289.971 23.1828 289.971C25.7613 289.971 27.7359 283.705 27.9231 278.643C28.1103 273.574 30.1731 272.076 31.4871 271.324C32.8011 270.575 32.9883 268.696 32.9883 265.881C32.9883 263.069 35.6128 259.314 36.7431 257.252C37.8664 255.189 39.2051 253.652 42.3206 252.759C44.6766 252.084 47.1244 249.618 50.2293 244.85C49.5264 253.472 49.1166 260.706 48.7139 266.951C46.6652 268.707 44.998 270.575 44.8426 272.772C44.5424 276.919 46.3226 283.146 43.9489 285.223C41.5788 287.297 40.9854 288.187 41.872 290.854C42.7656 293.524 39.7985 293.228 39.5018 296.491C39.2051 299.748 38.0183 300.638 37.1282 303.012C37.0681 303.171 37.0822 303.312 37.1423 303.425C37.1599 303.464 37.2023 303.482 37.2306 303.51C37.2659 303.552 37.2906 303.591 37.3401 303.623C27.8807 311.821 13.1052 318.829 12.2292 325.841C12.2292 325.841 12.5189 325.346 13.1477 324.527C13.3243 324.297 13.5327 324.032 13.7658 323.75C13.8329 323.668 13.9035 323.584 13.9777 323.506C14.2603 323.167 14.5711 322.81 14.9279 322.425C14.9632 322.393 14.995 322.362 15.0268 322.326C15.3553 321.969 15.7332 321.595 16.1289 321.207C16.2454 321.093 16.3655 320.977 16.4856 320.867C16.9448 320.433 17.4323 319.977 17.9762 319.515C18.0151 319.479 18.061 319.447 18.0964 319.416C18.6085 318.981 19.1666 318.533 19.7494 318.084C19.7565 318.077 19.7565 318.073 19.76 318.07C19.8307 318.186 19.9013 318.303 19.9826 318.398C20.1309 318.579 20.742 317.939 20.5583 317.72C20.5159 317.671 20.4806 317.618 20.4417 317.561C21.0563 317.109 21.6781 316.65 22.3704 316.194C22.3951 316.173 22.4233 316.155 22.4445 316.141C22.547 316.074 22.6671 316.007 22.766 315.94C22.8225 316.131 23.1828 315.848 23.317 315.597C23.7939 315.297 24.2672 314.99 24.7829 314.69C24.9984 314.559 25.2244 314.428 25.447 314.297C25.5388 314.248 25.6377 314.199 25.7225 314.146C25.8002 314.237 26.0157 314.096 26.1746 313.905C26.8458 313.538 27.5063 313.16 28.2339 312.793C28.7461 312.542 29.2406 312.27 29.7387 312.009C29.7669 312.27 30.1484 311.973 30.3003 311.715C33.5817 309.928 36.5736 307.893 39.2263 305.46C39.3005 305.414 39.3676 305.35 39.4312 305.276C40.1341 304.626 40.8158 303.948 41.4657 303.238C46.3685 301.747 55.019 297.258 65.5875 287.597C82.7826 271.882 89.9001 259.435 101.164 236.012C105.018 237.499 106.208 233.345 106.502 229.191C106.798 225.045 104.725 224.154 102.945 222.967C102.295 222.537 101.846 221.781 101.532 221.004C101.493 220.901 101.458 220.795 101.422 220.696C101.373 220.562 101.33 220.431 101.288 220.297C101.256 220.188 101.224 220.078 101.196 219.972C101.164 219.845 101.136 219.728 101.108 219.615C101.076 219.499 101.055 219.382 101.03 219.276C101.002 219.131 100.977 218.987 100.956 218.863C100.942 218.782 100.931 218.718 100.924 218.648C100.914 218.566 100.903 218.489 100.896 218.436C100.885 218.404 100.885 218.361 100.878 218.337C100.875 218.284 100.868 218.224 100.868 218.224C100.868 218.224 103.591 219.531 104.428 216.754C106.668 209.28 107.975 204.794 108.911 205.73C109.843 206.67 110.218 209.464 111.712 207.973C113.206 206.482 115.449 202.742 117.317 196.387C117.416 196.048 117.526 195.727 117.632 195.419C117.642 195.409 117.695 195.395 117.695 195.395L118.571 194.165C119.737 193.756 120.892 193.346 122.037 192.94C122.065 193.025 122.079 193.109 122.146 193.187C122.259 193.328 122.651 192.968 122.725 192.696C123.76 192.332 124.785 191.965 125.795 191.601C125.837 191.661 125.88 191.732 125.919 191.788C126.003 191.915 126.367 191.615 126.48 191.354C133.891 188.698 140.5 186.218 145.215 184.212C145.24 184.3 145.293 184.381 145.318 184.477C145.371 184.713 145.985 184.169 145.943 183.904C147.335 183.297 148.525 182.742 149.51 182.248C151.04 182.647 152.873 182.223 153.972 182.59C153.972 182.59 154.424 181.852 155.014 180.969C153.657 183.17 151.637 186.335 146.833 190.439C144.251 192.332 144.449 193.403 146.144 193.696C146.391 193.876 146.759 193.992 147.239 194.056C147.398 193.964 147.571 193.858 147.737 193.763C148.327 193.731 148.963 193.671 149.676 193.544C154.074 192.77 167.79 188.369 168.563 186.299C169.344 184.226 169.153 180.831 173.484 181.124C173.187 183.498 173.187 183.498 173.187 183.498L173.251 183.488L180.598 182.357C180.531 182.385 180.471 182.41 180.4 182.438C180.231 182.506 180.061 182.573 179.895 182.647C178.952 183.046 178.044 183.473 177.172 183.922C177.03 183.993 176.893 184.067 176.748 184.152C174.946 185.102 173.314 186.137 171.898 187.239C171.848 187.281 171.788 187.317 171.735 187.352C171.753 187.345 171.778 187.331 171.792 187.324C167.797 190.457 165.572 194.084 166.052 197.645C166.049 197.659 166.045 197.677 166.041 197.698C166.063 197.874 166.094 198.058 166.133 198.238C167.073 193.533 172.802 189.853 176.613 187.875C176.585 187.938 176.55 187.991 176.525 188.048C177.97 187.765 179.443 187.49 180.902 187.249C180.877 187.26 180.856 187.274 180.835 187.281C180.506 187.447 180.174 187.606 179.867 187.783C179.563 187.959 179.291 188.143 179.005 188.323C178.747 188.496 178.482 188.652 178.235 188.828C177.949 189.037 177.684 189.252 177.415 189.468C177.214 189.634 177.002 189.793 176.808 189.973C176.543 190.202 176.303 190.446 176.059 190.69C175.896 190.863 175.727 191.022 175.579 191.191C175.338 191.449 175.126 191.714 174.914 191.986C174.826 192.096 174.72 192.209 174.635 192.329C174.657 192.297 173.494 192.279 173.519 192.255C170.821 195.843 169.722 200.057 169.722 203.597C169.722 203.614 169.722 203.621 169.722 203.635C169.722 203.802 170.976 203.968 171.018 204.123C172.202 196.25 181.121 189.531 185.441 186.536C187.224 186.342 189.185 186.239 190.619 186.257C187.14 187.868 183.692 191.396 183.692 191.396C183.371 191.806 183.261 192.24 183.138 192.682C181.283 194 172.082 201.682 180.132 219.177C184.459 228.669 190.824 240.223 184.024 257.252C177.465 260.017 170.181 263.684 162.735 268.247C163.043 267.757 163.269 267.435 163.269 267.435C159.044 270.084 155.381 272.737 152.128 275.326C148.589 277.894 145.081 280.653 141.662 283.634C132.001 293.581 126.749 302.676 124.053 310.415C114.954 314.566 104.7 318.448 92.7895 322.128C82.0726 325.194 73.3585 328.963 67.3077 334.113C67.2548 334.138 67.2088 334.184 67.1558 334.233C65.4356 335.721 63.945 337.324 62.6805 339.055C62.5215 339.172 62.3661 339.398 62.3414 339.557C59.618 343.474 58.0921 348.052 57.9261 353.467C57.919 353.548 57.8908 353.626 57.8802 353.71C57.8696 354.226 57.8696 354.738 57.8802 355.257C59.0529 350.044 60.102 345.092 63.7472 340.411C63.9345 340.425 64.3618 339.973 64.2488 339.747C64.6974 339.217 65.1919 338.684 65.7182 338.154C65.7288 338.161 65.7429 338.175 65.75 338.186C65.8666 338.345 66.3717 337.854 66.3258 337.586C70.6033 333.534 77.3535 329.716 88.5649 326.13C90.2498 325.601 91.9735 325.05 93.7361 324.499C93.7467 324.513 93.7538 324.53 93.7644 324.548C93.8209 324.633 94.0046 324.527 94.1529 324.368C95.0324 324.089 95.9367 323.803 96.8339 323.52C96.8339 323.531 96.841 323.541 96.8445 323.548C96.8551 323.803 97.1695 323.591 97.3496 323.354C100.341 322.411 103.422 321.418 106.562 320.376C106.615 320.391 106.675 320.366 106.752 320.313C107.787 319.967 108.812 319.631 109.857 319.271C109.882 319.306 109.896 319.334 109.917 319.359C110.016 319.462 110.242 319.296 110.387 319.094C112.81 318.264 115.265 317.378 117.734 316.456C117.738 316.47 117.745 316.484 117.748 316.494C117.787 316.65 118.038 316.484 118.211 316.276C119.748 315.707 121.284 315.113 122.828 314.495C122.683 315.075 122.545 315.643 122.429 316.198C122.429 316.212 122.425 316.685 122.422 316.699C121.101 323.033 121.493 326.625 122.273 332.142C122.273 332.142 122.273 332.142 122.27 332.142C122.287 332.142 122.309 331.807 122.326 331.885C122.39 332.164 122.453 332.195 122.521 332.453C122.559 332.573 122.588 332.584 122.619 332.704C122.701 332.983 122.778 333.184 122.86 333.435C122.881 333.509 122.905 333.562 122.93 333.636C123.036 333.954 123.142 334.226 123.245 334.502C123.262 334.551 123.283 334.58 123.301 334.629C123.386 334.841 123.471 335.039 123.552 335.219C123.587 335.3 123.615 335.36 123.651 335.427C123.711 335.562 123.774 335.685 123.831 335.802C123.866 335.865 123.898 335.918 123.926 335.978C123.983 336.074 124.032 336.155 124.078 336.233C124.106 336.275 124.135 336.317 124.159 336.353C124.202 336.423 124.241 336.469 124.276 336.512C124.287 336.519 124.294 336.536 124.308 336.544C124.311 336.554 124.322 336.565 124.333 336.575C124.382 336.621 124.417 336.646 124.442 336.639C125.113 336.416 126.229 335.519 126.455 333.064C126.681 330.599 126.455 329.479 129.359 328.589C132.27 327.695 131.15 328.815 131.824 326.127C132.492 323.439 132.941 322.997 135.177 322.104C137.416 321.207 140.32 319.416 141.662 317.632C143.004 315.841 143.004 312.704 145.017 312.485C147.027 312.259 148.596 311.369 150.832 308.681C151.792 307.53 153.739 306.894 156.646 306.226C159.556 305.555 160.895 301.751 162.237 301.306C163.579 300.861 166.486 303.093 169.616 303.093C172.749 303.093 173.198 299.964 174.091 297.947C174.982 295.933 178.563 294.821 181.693 293.252C184.826 291.687 186.168 290.123 187.956 292.359C189.746 294.591 192.205 293.475 194.444 291.91C196.677 290.345 199.587 293.475 199.587 293.475C199.587 293.475 199.361 294.372 196.232 296.159C193.102 297.947 192.657 302.196 192.657 305.552C192.657 308.904 185.275 313.383 181.022 315.622C176.78 317.851 171.856 318.299 169.616 320.987C167.38 323.668 167.38 325.011 164.699 326.35C164.378 326.512 164.067 326.653 163.76 326.787C163.601 326.858 163.442 326.925 163.286 326.999C163.071 327.088 162.852 327.187 162.64 327.282C162.463 327.356 162.294 327.434 162.121 327.515C161.997 327.572 161.873 327.632 161.757 327.695C161.577 327.784 161.407 327.875 161.234 327.974C161.132 328.034 161.033 328.08 160.937 328.147C160.679 328.303 160.429 328.476 160.181 328.67C160.1 328.737 160.026 328.815 159.948 328.879C159.775 329.023 159.602 329.182 159.433 329.359C159.337 329.461 159.235 329.578 159.139 329.687C159.055 329.793 158.963 329.875 158.878 329.984C158.889 329.981 158.906 329.977 158.917 329.97C158.525 330.461 158.14 331.012 157.765 331.719C155.752 335.519 154.41 333.287 152.174 335.297C149.938 337.31 148.822 340.217 145.466 339.991C142.11 339.772 141.213 343.128 138.087 343.128C134.954 343.128 132.047 342.008 129.362 346.035C129.218 346.25 129.101 346.473 128.995 346.685C128.97 346.734 128.949 346.798 128.924 346.847C128.84 347.041 128.769 347.246 128.734 347.441C128.734 347.455 128.723 347.465 128.723 347.483C128.688 347.681 128.688 347.879 128.705 348.069C128.709 348.129 128.72 348.189 128.734 348.249C128.762 348.415 128.811 348.578 128.889 348.744C128.9 348.783 128.903 348.808 128.921 348.843C129.016 349.027 129.147 349.214 129.299 349.401C129.352 349.461 129.412 349.525 129.472 349.592C129.613 349.747 129.776 349.899 129.956 350.047C130.009 350.097 130.055 350.139 130.118 350.189C130.348 350.372 130.627 350.552 130.927 350.743C131.044 350.814 131.167 350.892 131.295 350.962C131.542 351.111 131.817 351.255 132.107 351.407C132.224 351.467 132.33 351.524 132.453 351.587C132.845 351.775 133.283 351.972 133.746 352.174C133.933 352.259 134.135 352.34 134.336 352.425C134.71 352.576 135.109 352.739 135.53 352.898C135.71 352.969 135.876 353.039 136.067 353.11C136.554 353.294 137.066 353.477 137.614 353.668C137.61 353.664 137.607 353.657 137.607 353.657C141.796 355.127 147.66 356.109 155.713 358.299C158.719 359.104 161.658 359.726 164.568 359.726C164.547 359.726 164.523 359.726 164.505 359.726C165.278 359.726 166.024 360.778 166.79 360.944C168.337 361.276 169.895 361.986 171.414 362.276C171.728 362.336 172.032 362.559 172.354 362.622C176.101 363.325 179.75 363.986 183.311 364.431C183.791 364.487 184.293 364.614 184.773 364.674C186.112 364.826 187.412 364.957 188.722 365.074C189.591 365.151 190.471 365.264 191.322 365.324C192.523 365.413 193.688 365.462 194.858 365.519C195.787 365.565 196.726 365.621 197.637 365.646C198.743 365.671 199.824 365.667 200.905 365.667C201.844 365.667 202.784 365.671 203.709 365.646C204.737 365.625 205.744 365.568 206.751 365.519C207.683 365.462 208.612 365.416 209.527 365.342C210.484 365.264 211.427 365.162 212.363 365.052C213.282 364.953 214.19 364.847 215.083 364.72C215.973 364.59 216.853 364.445 217.725 364.289C218.623 364.13 219.506 363.964 220.371 363.777C221.201 363.601 222.021 363.417 222.83 363.216C223.695 363 224.546 362.763 225.383 362.516C226.15 362.297 226.913 362.075 227.655 361.827C228.499 361.548 229.315 361.245 230.127 360.937C230.819 360.672 231.519 360.411 232.194 360.125C233.013 359.779 233.801 359.394 234.588 359.019C235.21 358.719 235.835 358.429 236.436 358.104C237.245 357.681 238.018 357.207 238.788 356.741C239.318 356.416 239.866 356.112 240.378 355.773C241.215 355.226 241.999 354.625 242.79 354.025C243.189 353.721 243.62 353.442 244.009 353.117C245.164 352.177 246.27 351.181 247.319 350.136C256.262 341.192 266.704 330.91 276.467 320.383C276.47 320.383 276.47 320.383 276.47 320.383C276.513 320.383 276.555 320.306 276.601 320.26C276.626 320.235 276.643 320.221 276.661 320.2C277.89 318.932 279.105 317.671 280.306 316.424C280.349 316.374 280.395 316.339 280.437 316.29C281.673 315 282.896 313.729 284.1 312.475C284.128 312.443 284.16 312.415 284.181 312.383C285.375 311.143 286.537 309.924 287.685 308.727C287.742 308.667 287.805 308.6 287.862 308.54C289.017 307.325 290.151 306.138 291.246 304.983C291.256 304.972 291.264 304.965 291.274 304.958C292.397 303.778 293.485 302.627 294.534 301.518C294.538 301.514 294.545 301.507 294.552 301.497C296.657 299.275 298.628 297.187 300.384 295.304C313.135 281.663 316.724 263.211 316.724 263.211C319.638 260.508 320.68 258.421 321.722 254.256C322.761 250.095 325.887 250.304 326.932 248.841C327.971 247.386 328.596 246.344 328.176 244.882C327.762 243.43 326.099 244.465 327.342 240.512C328.801 234.684 328.801 226.351 329.843 222.399C330.885 218.439 336.091 216.984 336.091 215.317C336.091 213.649 336.091 211.982 334.212 210.107C332.34 208.235 332.139 206.362 331.093 198.45C331.012 197.839 330.902 197.217 330.772 196.589C330.754 196.497 330.161 196.405 330.14 196.32C330.012 195.716 329.133 195.112 329.133 194.512C329.133 194.508 329.133 194.508 329.133 194.508C329.133 187.624 324.198 180.616 324.901 178.867C325.728 176.79 325.601 175.332 322.27 175.332C322.143 174.961 322.128 174.53 321.941 174.046C321.941 174.042 322.005 174.042 322.005 174.039C321.132 171.831 319.723 168.694 318.748 166.635C319.398 166.349 320.058 166.049 320.705 165.752C320.8 165.925 320.913 166.116 321.019 166.307C321.03 166.324 321.044 166.342 321.051 166.356C321.263 166.734 321.5 167.151 321.743 167.589C321.775 167.649 321.803 167.688 321.835 167.744C323.079 169.959 324.707 172.806 326.067 175.003C327.448 176.879 328.098 176.84 328.501 176.208C330.581 179.051 335.399 185.702 339.179 191.428C339.482 191.891 339.776 192.346 340.065 192.791C340.157 192.936 340.252 193.085 340.348 193.229C340.726 193.826 341.097 194.409 341.439 194.967C342.439 197.362 340.641 200.757 342.439 201.156C342.707 201.212 342.937 201.064 343.163 200.788C341.57 207.45 337.55 224.264 335.65 231.703C335.018 234.189 334.442 236.21 334 237.86C333.961 238.004 333.919 238.16 333.884 238.298C333.746 238.838 333.615 239.34 333.509 239.795C333.495 239.848 333.488 239.894 333.474 239.947C333.382 240.36 333.308 240.742 333.251 241.084C333.248 241.141 333.23 241.208 333.227 241.265C333.17 241.618 333.153 241.929 333.153 242.204C333.153 242.254 333.156 242.303 333.16 242.349C333.167 242.557 333.188 242.745 333.241 242.911C333.078 243.055 332.916 243.229 332.743 243.405C332.669 243.479 332.598 243.55 332.527 243.635C332.277 243.9 332.026 244.196 331.771 244.521C331.711 244.595 331.651 244.652 331.588 244.73C331.598 244.726 331.609 244.719 331.62 244.716C330.655 245.97 329.772 247.577 329.585 249.424C331.807 250.985 333.145 252.317 333.364 253.652C333.587 254.987 331.807 256.319 333.364 257.651C334.922 258.986 339.811 268.993 341.814 278.777C343.816 288.558 346.038 302.344 344.703 309.903C342.926 311.461 343.149 313.241 342.036 316.572C343.371 317.243 343.371 317.243 343.371 317.243C343.371 317.243 339.592 329.023 338.921 334.806C339.143 334.664 339.309 334.53 339.507 334.396C339.493 334.406 339.479 334.428 339.465 334.442C339.627 334.339 339.747 334.23 339.899 334.127C340.206 333.898 340.521 333.679 340.789 333.456C340.962 333.315 341.114 333.181 341.266 333.043C341.524 332.814 341.778 332.591 342.001 332.368C342.124 332.238 342.227 332.111 342.343 331.987C342.548 331.761 342.753 331.531 342.926 331.302C343.018 331.185 343.089 331.069 343.174 330.952C343.329 330.719 343.499 330.489 343.633 330.256C343.696 330.15 343.749 330.041 343.806 329.938C343.933 329.702 344.064 329.461 344.18 329.218C344.216 329.129 344.251 329.045 344.286 328.96C344.696 328.027 345 327.091 345.374 326.13C346.483 323.245 351.375 314.347 351.375 308.572C353.156 309.013 353.156 309.013 353.156 309.013L352.04 297.901L354.042 299.451L353.156 293.005L355.378 293.669C355.378 293.669 354.042 288.335 351.821 287.004C353.82 287.445 353.82 287.445 353.82 287.445L350.485 272.105L352.266 272.772L348.928 263.871L351.153 263.419L346.483 249.399H348.038C348.038 249.399 346.632 247.361 345.367 245.454C346.158 244.822 346.819 243.78 347.43 241.042C348.444 236.478 354.035 208.697 355.727 200.184C356.6 200.411 358.821 195.405 355.021 189.454C351.043 183.23 340.945 170.358 338.303 166.985C338.811 166.381 338.931 165.576 338.684 164.714C338.811 164.763 338.942 164.841 339.062 164.873C339.246 165.109 339.458 165.381 339.663 165.643C339.772 165.784 339.871 165.915 339.984 166.059C340.203 166.339 340.432 166.632 340.669 166.943C340.782 167.084 340.899 167.239 341.015 167.384C341.655 168.211 342.347 169.104 343.089 170.061C347.949 176.335 354.551 184.946 356.96 188.553C357.232 188.959 357.455 189.302 357.606 189.574C358.733 191.506 359.567 192.467 360.312 192.537C360.227 193.554 360.033 194.844 360.033 196.345C360.033 196.359 360.033 196.373 360.033 196.387C360.033 196.921 359.902 197.479 359.856 198.058C359.842 198.217 359.811 198.372 359.8 198.528C359.761 199.029 359.704 199.542 359.666 200.068C359.659 200.234 359.637 200.382 359.627 200.548C359.108 207.178 358.193 215.663 357.96 222.081C357.698 225.747 357.278 228.234 357.278 229.824C357.278 229.898 357.278 229.965 357.278 230.036C357.278 230.283 357.606 230.512 357.628 230.71C357.635 230.756 357.794 230.813 357.797 230.859C357.829 231.081 357.942 231.279 357.988 231.441C357.998 231.477 358.044 231.498 358.055 231.526C358.094 231.646 358.161 231.752 358.214 231.837C358.232 231.869 358.263 231.897 358.281 231.918C358.338 231.992 358.415 232.045 358.489 232.081C358.504 232.088 358.518 232.098 358.532 232.105C358.617 232.13 359.171 232.144 359.27 232.13C359.288 232.897 360.033 233.946 360.033 235.32C360.033 235.33 360.033 235.337 360.033 235.348C360.033 237.358 360.4 240.057 361.389 243.645C364.162 253.705 368.74 270.762 368.154 287.675C367.652 302.207 368.726 308.014 369.708 310.281C369.708 310.295 369.662 310.295 369.669 310.306C369.835 310.666 369.98 310.945 370.139 311.154C371.305 312.613 375.232 304.594 374.65 293.651C376.543 295.262 376.536 295.262 376.536 295.262C376.536 295.262 375.805 287.233 374.201 285.488C376.243 287.096 377.26 287.972 377.26 287.972C377.26 287.972 376.384 278.639 374.487 276.449C376.673 277.767 376.674 277.767 376.674 277.767C376.674 277.767 375.359 269.304 373.177 266.534C375.359 266.976 375.36 266.976 375.36 266.976C375.36 266.976 373.466 256.326 371.135 253.705C373.177 253.85 373.177 253.85 373.177 253.85L368.359 244.369L370.552 244.663L366.766 231.035C367.684 230.519 367.765 228.421 367.606 224.525C367.401 219.64 371.661 192.986 368.468 185.766C368.888 185.621 369.023 185.317 368.659 184.491C366.928 181.029 353.601 166.232 348.885 161.051C349.719 160.899 350.358 160.761 350.485 160.118C350.782 158.638 349.595 158.038 346.928 156.858C345.187 156.084 342.958 154.315 341.609 153.167C341.966 152.87 341.125 152.584 341.478 152.284C341.623 152.404 340.726 152.531 340.726 152.655V152.87C340.726 154.859 348.493 158.38 350.715 158.38H351.368C351.372 158.38 351.375 158.38 351.375 158.38C351.609 158.38 351.828 158.5 352.025 158.564C352.047 158.571 352.064 158.539 352.085 158.546C352.266 158.599 352.428 158.621 352.576 158.642C352.601 158.642 352.633 158.638 352.661 158.642C352.792 158.649 352.901 158.635 353 158.61C353.025 158.603 353.057 158.61 353.078 158.599C353.163 158.571 353.219 158.507 353.272 158.44C353.322 158.525 353.389 158.635 353.445 158.726C353.498 158.822 353.555 158.914 353.622 159.013C354.042 159.708 354.565 160.574 355.197 161.574C355.385 161.874 355.579 162.188 355.78 162.51C355.914 162.721 356.038 162.916 356.183 163.138C356.193 163.156 356.201 163.227 356.215 163.241C359.217 167.932 363.59 174.519 367.539 178.468C367.645 178.468 367.751 178.617 367.864 178.726C368.316 179.182 368.768 179.606 369.21 179.994C369.242 180.022 369.273 180.029 369.309 180.061C369.817 180.499 370.312 180.895 370.792 181.216C370.923 181.308 371.047 181.347 371.177 181.432C371.548 181.658 371.916 181.88 372.258 182.032C372.724 182.223 373.17 182.325 373.583 182.336C373.583 182.336 373.569 182.361 373.555 182.4C373.544 182.414 373.537 182.446 373.53 182.474C373.512 182.506 373.498 182.541 373.487 182.601C373.473 182.647 373.463 182.703 373.449 182.76C373.434 182.824 373.42 182.88 373.406 182.958C373.392 183.032 373.385 183.124 373.371 183.212C373.364 183.304 373.597 183.392 373.59 183.495C373.586 183.601 373.823 183.728 373.823 183.848C373.823 183.971 373.823 184.092 373.823 184.226C373.823 184.371 373.593 184.53 373.607 184.685C373.615 184.847 373.505 184.999 373.519 185.172C373.54 185.356 373.509 185.55 373.537 185.748C373.569 185.942 373.565 186.147 373.604 186.363C373.646 186.578 373.685 186.811 373.738 187.048C373.77 187.186 373.823 187.309 373.823 187.461C373.823 187.447 373.823 187.437 373.823 187.426C373.823 187.68 373.915 187.903 373.982 188.182C375.151 192.657 374.371 205.709 374.561 214.084C374.953 219.728 375.536 220.703 376.705 221.29C376.659 221.509 376.698 221.805 376.779 222.137C376.808 222.229 376.847 222.349 376.882 222.455C376.974 222.727 377.09 223.031 377.242 223.36C377.302 223.487 377.352 223.61 377.422 223.745C377.896 224.695 378.574 225.86 379.422 227.213C379.542 227.404 379.679 227.619 379.807 227.821C380.153 228.372 380.527 228.951 380.923 229.559C381.05 229.757 381.184 229.961 381.315 230.17C381.82 230.936 382.336 231.735 382.894 232.586C384.165 234.529 385.564 236.68 387.02 239.011C392.862 248.361 398.316 263.355 399.096 272.899C398.948 275.648 402.021 277.428 404.172 278.961C404.232 279 404.282 279.038 404.338 279.081C404.599 279.268 404.836 279.455 405.059 279.635C405.136 279.703 405.211 279.77 405.288 279.837C405.536 280.056 405.758 280.278 405.91 280.497C407.273 282.444 404.744 262.967 402.208 259.265C403.77 260.046 403.769 260.046 403.769 260.046C403.769 260.046 401.82 253.228 399.287 251.865C401.435 252.063 401.435 252.063 401.435 252.063C401.435 252.063 398.513 244.274 395.783 243.296C397.146 243.493 398.316 243.688 398.316 243.688C398.316 243.688 394.999 237.842 392.081 236.093C394.027 236.478 394.027 236.478 394.027 236.478C394.027 236.478 392.081 230.636 387.797 227.711C390.135 227.909 390.912 228.103 390.912 228.103C390.912 228.103 386.239 219.728 383.123 218.368C385.045 202.3 384.773 185.769 382.869 178.878C382.65 178.08 382.41 177.409 382.152 176.882C379.99 172.569 365.554 158.098 361.333 153.912C361.389 153.912 361.449 153.905 361.506 153.905C361.704 151.764 361.121 151.567 356.246 149.62C353.032 148.338 351.026 146.127 350.023 144.771C354.053 139.808 357.331 134.008 359.556 127.159C359.394 131.804 360.196 136.049 363.484 135.318C367.592 134.407 368.729 127.332 373.975 119.808C376.084 116.784 377.21 114.174 377.938 111.723C377.938 120.652 380.912 118.537 389.149 106.078C390.075 104.655 390.933 103.274 391.749 101.91C392.007 101.483 392.24 101.066 392.487 100.646C393.035 99.7166 393.558 98.7948 394.056 97.8941C394.303 97.4419 394.543 96.9969 394.783 96.5447C395.25 95.6687 395.695 94.8033 396.115 93.9449C396.285 93.6165 396.458 93.2704 396.617 92.9454C396.122 103.009 397.457 105.495 401.608 101.137C402.304 100.342 402.971 99.4941 403.628 98.6216C403.706 98.5121 403.787 98.4026 403.865 98.2896C404.066 98.0212 404.25 97.7245 404.444 97.4455C404.815 96.9227 405.182 96.3964 405.543 95.8453C405.691 95.6087 405.839 95.372 405.988 95.1318C406.097 94.9587 406.203 94.7963 406.316 94.6197C406.687 94.5879 407.058 94.3123 407.235 93.8885C407.362 93.5811 407.351 93.2703 407.259 93.0125C407.288 92.956 407.316 92.8959 407.348 92.8429C407.563 92.4579 407.779 92.0623 407.987 91.6737C408.146 91.3806 408.308 91.0945 408.46 90.8013C408.662 90.4163 408.856 90.0206 409.05 89.6285C409.283 89.1623 409.516 88.689 409.742 88.2121C409.901 87.873 410.075 87.5446 410.234 87.1984C410.272 87.1136 410.304 87.0218 410.35 86.9299C410.452 86.6968 410.558 86.4531 410.664 86.2129C410.88 85.7219 411.095 85.2345 411.311 84.7293C411.417 84.4856 411.523 84.249 411.625 84.0052C414.737 94.27 416.019 95.4073 422.759 87.7388C425.231 84.5634 427.951 80.5154 430.509 75.9552C435.305 85.1214 437.107 84.7117 443.645 77.9898C446.937 74.7755 449.975 71.8048 452.536 68.5975C453.921 71.0666 456.224 73.6204 459.155 72.4159C461.91 71.0418 465.372 66.7502 468.3 61.5613C468.756 61.3246 469.247 61.0632 469.791 60.7736C471.264 61.2575 472.942 62.2253 473.726 64.1928C473.977 64.8215 474.213 65.4821 474.446 66.1426C474.619 66.6336 474.803 67.114 474.99 67.5909C475.061 67.7781 475.142 67.9618 475.22 68.1454C475.397 68.5587 475.591 68.9437 475.796 69.3252C475.884 69.4806 475.958 69.6396 476.05 69.7879C476.343 70.2612 475.718 70.7027 476.103 71.0842C476.114 71.0913 475.185 71.109 475.185 71.1196C475.185 71.1161 475.185 71.116 475.185 71.116C475.185 72.0168 478.371 72.4936 480.158 72.3876C480.133 74.2632 480.564 76.7499 480.465 79.2013C480.271 84.0688 482.648 87.9649 497.265 93.8072C498.727 94.3936 500.214 94.9164 501.535 95.4073C501.627 95.4427 500.514 95.4745 500.606 95.5098C509.91 98.9219 514.492 99.8297 517.25 97.1876V97.1805C517.25 96.8768 519.087 96.5059 519.317 96.1032C519.366 96.0149 520.058 95.916 520.108 95.8206C520.118 95.8065 520.436 95.8029 520.443 95.7888C521.63 96.4599 523.58 97.442 526.374 98.876C526.854 99.1233 527.388 99.3316 527.822 99.5259C527.942 99.5789 528.101 99.6249 528.222 99.6708C528.547 99.805 528.889 99.9216 529.186 100.02C529.292 100.052 529.408 100.091 529.507 100.112C530.281 100.335 530.977 100.405 531.595 100.321C531.669 100.303 531.747 100.285 531.821 100.271C532.061 100.218 532.294 100.141 532.517 100.024C532.577 99.9993 532.637 99.978 532.697 99.9392C533.234 99.6283 533.711 99.1304 534.142 98.431C534.191 98.3533 534.233 98.2649 534.283 98.1766C534.456 97.8693 534.615 97.5338 534.77 97.1593C534.802 97.0957 534.823 97.0534 534.852 96.9862C534.852 96.9862 534.841 96.9969 534.837 96.9969C535.653 94.9517 536.279 91.9033 536.861 87.5763C537.126 83.9734 536.989 80.6884 536.642 77.7355Z" fill="black"/>
</svg>
