<svg width="392" height="453" viewBox="0 0 392 453" fill="none" xmlns="http://www.w3.org/2000/svg">
<path d="M22.6343 214.277L22.6345 214.276L22.6376 214.262L22.6524 214.195C22.6663 214.134 22.6879 214.038 22.7176 213.91C22.7769 213.653 22.8684 213.263 22.9936 212.75C23.2442 211.722 23.6298 210.197 24.1638 208.236C25.232 204.314 26.893 198.65 29.2529 191.738C33.9754 177.905 41.4827 159.111 52.6133 139.27C74.8676 99.5996 111.341 56.1902 168.587 39.3236L173.136 38.8101C173.302 38.8191 173.535 38.8324 173.831 38.8508C174.503 38.8926 175.499 38.9605 176.774 39.0644C179.326 39.2721 182.992 39.623 187.419 40.194C196.288 41.3378 208.142 43.3564 220.177 46.8495C232.251 50.3535 244.279 55.2769 253.652 62.1176C262.986 68.9289 269.438 77.4418 271.041 88.1966C274.711 112.803 280.586 127.172 287.233 136.335C292.946 144.211 299.139 148.03 303.911 150.973C304.712 151.468 305.474 151.938 306.187 152.398C310.088 154.917 312.589 159.888 313.114 165.391C313.646 170.97 312.044 175.84 309.34 178.225L309.34 178.225C306.744 180.517 304.879 183.706 303.277 186.691C302.814 187.554 302.368 188.41 301.923 189.263C300.728 191.558 299.545 193.826 298.087 196.129C294.271 202.154 288.959 207.722 278.674 210.054L279.559 213.955L278.674 210.054C265.964 212.937 259.922 219.342 257.399 225.679C256.188 228.723 255.87 231.549 255.852 233.611C255.842 234.646 255.908 235.506 255.981 236.13C256.017 236.442 256.055 236.697 256.087 236.887C256.101 236.97 256.114 237.04 256.125 237.098L256.133 237.152C256.147 237.247 256.168 237.391 256.196 237.582C256.251 237.965 256.332 238.537 256.435 239.285C256.64 240.781 256.931 242.983 257.272 245.789C257.953 251.402 258.83 259.426 259.615 269.05C261.186 288.316 262.376 313.913 260.887 339.377C259.393 364.931 255.219 389.936 246.318 408.268C241.886 417.397 236.372 424.679 229.618 429.599C222.923 434.476 214.813 437.179 204.842 436.884C188.598 436.404 171.638 437.044 154.911 437.676C149.173 437.893 143.463 438.109 137.819 438.278C115.574 438.944 94.2641 438.893 75.4312 435.53C56.6352 432.174 40.6495 425.575 28.7534 413.41C16.8852 401.274 8.6535 383.151 6.22347 355.887C1.2779 300.399 5.39786 265.152 10.6349 243.924C13.2525 233.313 16.1489 226.207 18.3319 221.821C19.4236 219.628 20.3382 218.113 20.9526 217.178C21.2599 216.71 21.4924 216.387 21.6348 216.197C21.706 216.102 21.7547 216.04 21.7791 216.009C21.7847 216.002 21.7891 215.997 21.7921 215.993L21.7969 215.987L22.6343 214.277ZM22.6343 214.277L22.634 214.278L22.6343 214.277Z" stroke="black" stroke-width="8"/>
<path d="M226.466 7.65531C221.403 1.6693 212.952 -0.191956 205.434 0.0154343C195.451 0.291954 185.825 4.32587 178.194 10.6727C167.135 20.3134 160.953 34.6674 165.152 49.2249C168.639 61.3075 178.638 70.3794 191.477 70.4215C205.143 70.465 217.783 63.602 224.784 51.8196C228.673 45.2746 230.682 37.7361 231.258 30.1805C231.84 22.5334 231.666 13.8046 226.466 7.65531Z" fill="black"/>
<path d="M281.762 132.158C278.17 125.546 268.68 129.258 264.897 133.521C260.577 138.944 256.051 146.612 257.918 153.876C259.096 158.448 263.073 160.234 267.451 159.03C272.963 157.511 277.244 152.945 279.824 148.011C282.094 143.669 284.32 136.868 281.762 132.158Z" fill="black"/>
<path d="M294.131 196.38C291.392 195.647 287.634 197.892 286.566 200.341C284.882 204.205 290.214 206.026 293.044 206.116C295.802 206.203 300.781 205.441 301.129 201.884C301.485 198.238 296.987 196.67 294.131 196.38Z" fill="black"/>
<path d="M314.673 153.649C311.602 152.33 308.463 156.421 307.272 158.51C304.969 162.547 303.356 169.507 309.956 169.91C314.489 170.188 319.526 168.009 320.675 163.304C321.771 158.819 319.482 154.114 314.673 153.649Z" fill="black"/>
<path d="M384.91 355.222C381.533 348.764 376.608 340.194 369.653 337.079C363.468 334.309 356.203 335.643 349.898 337.26C345.045 338.503 340.282 340.103 335.549 341.738C331.344 343.192 327.152 345.083 322.814 346.098C313.999 348.161 307.548 342.504 302.936 335.576C294.818 323.382 289.977 308.845 284.846 295.238C280.993 285.022 277.222 274.775 273.351 264.565C269.766 255.113 266.543 245.343 261.546 236.515C246.683 210.259 219.218 195.33 191.287 186.586C164.392 178.166 136.419 175.114 108.721 170.586C96.0147 168.509 82.3479 166.251 71.9297 158.131C63.1897 151.318 58.924 140.751 60.1664 129.793C60.3731 127.973 60.6904 126.1 61.2771 124.358C61.5556 123.531 61.0032 123.284 60.2329 123.379C59.6199 123.313 58.8463 123.496 58.2189 124.017C46.8506 133.438 40.457 148.919 34.9365 162.192C28.9294 176.634 23.9849 191.53 19.6212 206.545C18.7027 209.707 17.7981 212.875 16.9719 216.062C16.4129 218.218 19.8483 216.584 20.4185 216.033C19.6284 216.797 20.4856 215.977 20.7227 215.836C20.828 215.775 21.649 215.303 21.9821 215.165C24.0277 214.322 26.313 214.531 28.3487 215.306C36.857 218.544 39.6604 228.182 45.3337 234.422C56.5387 246.747 73.7672 253.465 88.9588 259.299C107.101 266.266 125.772 271.69 144.196 277.835C161.512 283.609 174.88 295.01 185.941 309.333C192.381 317.673 198.302 326.791 202.777 336.381C197.887 339.224 193.549 343.54 190.005 347.76C179.852 359.852 174.716 375.218 173.249 390.786C172.666 396.974 172.759 402.738 175.106 408.562C177.154 413.646 180.476 418.092 184.297 421.981C193.928 431.787 206.794 438.164 219.595 442.749C251.851 454.3 288.964 455.891 322.071 447.102C340.121 442.309 358.002 434.054 372.078 421.609C382.565 412.34 390.562 400.23 391.823 386.03C392.771 375.348 389.837 364.642 384.91 355.222Z" fill="black"/>
</svg>
