<svg width="377" height="435" viewBox="0 0 377 435" fill="none" xmlns="http://www.w3.org/2000/svg">
<path d="M150.342 397.115C140.837 391.019 129.497 375.948 119.488 358.855C118.926 371.651 117.771 392.057 116.016 394.91C113.437 399.103 98.2732 408.136 97.3046 412.329C96.3384 416.522 97.9496 426.845 105.048 429.427C112.144 432.009 120.209 432.33 127.953 429.104C135.694 425.877 149.889 419.425 152.147 414.264C153.271 411.698 154.07 405.228 154.595 399.366C153.049 398.675 151.609 397.928 150.342 397.115Z" fill="black"/>
<path d="M305.704 167.478C305.704 167.478 262.375 138.039 208.527 161.452C219.841 170.924 234.607 188.533 247.311 240.614C256.391 296.94 184.686 302.127 171.503 273.936C190.243 294.344 249.165 292.863 241.752 241.723C221.716 159.591 200.434 167.612 193.439 148.122C186.302 134.657 190.335 99.3143 194.084 66.8263C197.956 33.2749 210.32 6.78745 200.859 0.694366C188.278 -8.33896 130.211 72.6328 151.826 135.216L145.004 136.423C135.807 99.3097 94.2807 64.5194 58.0295 44.102C31.0497 28.9062 7.29445 21.2967 0.329907 28.6219C-1.67416 32.7248 6.05316 31.391 7.36609 41.5685C10.7432 67.7462 21.242 88.2816 37.7623 112.217C67.8811 155.844 105.88 162.601 114.606 203.413C114.606 203.413 112.144 238.124 108.596 249.74C105.048 261.353 93.4347 275.547 94.0796 292.324C98.4253 308.114 134.605 381.932 152.133 392.001C161.092 397.148 170.075 400.139 184.727 401.429C186.017 394.698 185.932 375.499 187.957 374.586C187.957 374.586 193.548 385.302 189.327 406.401C188.745 409.325 177.49 413.643 171.462 418.188C170.912 419.235 170.646 420.298 170.858 421.364C172.148 427.815 182.795 434.911 202.149 433.943C210.35 433.534 215.986 431.668 220.121 429.123C224.578 425.09 227.053 420.393 229.496 416.553C234.013 409.457 242.667 391.744 243.12 365.876C245.478 372.949 246.017 379.918 245.524 386.421C261.46 366.729 309.962 368.708 310.177 371.234C308.413 373.643 263.351 374.059 244.914 391.624C243.754 398.743 241.479 405.088 239.209 410.076C245.668 414.341 261.411 423.035 278.93 420.071C301.833 416.202 359.255 402.331 361.515 396.845C363.771 391.36 376.861 341.411 376.998 317.485C377.321 261.353 341.512 189.093 305.704 167.478Z" fill="black"/>
</svg>
