<svg width="426" height="370" viewBox="0 0 426 370" fill="none" xmlns="http://www.w3.org/2000/svg">
<path d="M104.128 227.208C90.0619 249.483 88.2242 278.783 95.8855 304.025C96.0103 304.372 96.1228 304.728 96.208 305.099C96.0955 304.74 95.992 304.381 95.8855 304.025C93.7253 298.083 86.1035 295.323 82.997 289.606C81.8682 287.528 81.3996 285.161 81.0862 282.815C78.2992 261.982 87.421 239.963 104.128 227.208ZM7.30589 232.761C3.45698 251.686 4.24197 271.216 5.45598 290.491C6.61217 308.841 8.55336 328.299 19.735 342.891C32.5778 359.656 52.1449 365.47 73.1176 367.944C83.7424 369.198 94.4676 369.216 105.165 369.237C119.265 369.261 133.413 369.283 147.382 367.381C161.35 365.48 175.979 360.858 188.019 353.528C188.04 356.966 190.961 359.845 194.22 360.943C197.478 362.041 200.065 361.281 203.503 361.202C222.86 360.751 242.232 360.301 261.513 358.53C262.487 358.442 263.597 358.272 264.13 357.45C264.541 356.811 263.947 355.518 263.272 355.211C263.488 355.037 263.637 354.724 263.53 354.456C263.333 353.954 262.761 353.72 262.243 353.577C262.374 353.452 262.417 353.096 262.548 352.971C261.474 352.351 260.293 351.94 259.097 351.608C253.237 349.987 247.049 350.206 240.976 350.437C239.418 350.498 238.35 349.743 236.795 349.801C248.439 334.268 250.554 313.813 252.261 294.474C252.614 290.44 252.413 285.605 250.992 281.814C257.725 271.578 267.884 263.634 279.443 259.566C281.902 258.702 284.704 258.693 287.263 259.189C292.171 267.523 301.962 272.062 311.598 272.847C321.237 273.635 330.83 271.183 340.061 268.305C353.695 264.048 367.022 258.815 379.904 252.65C384.983 250.222 390.012 247.782 395.519 246.626C401.33 245.406 407.035 243.681 412.549 241.472C414.125 240.842 415.701 240.164 417.061 239.147C419.09 237.632 420.59 235.53 421.969 233.409C421.141 232.858 419.677 232.362 418.74 232.697C422.185 231.38 425.066 228.334 426 224.765C424.969 223.621 423.265 223.021 421.765 223.371C423.134 222.577 424.056 221.077 424.302 219.516C420.773 218.111 416.693 218.022 413.142 219.37C413.842 218.966 413.903 218.205 414.067 217.411C397.816 214.84 382.828 230.111 366.511 227.996C355.57 226.575 347.336 216.961 344.257 206.369C348.206 205.806 352.223 205.247 356.163 205.852C358.725 206.244 361.192 207.124 363.748 207.562C368.437 208.368 374.166 207.428 376.354 203.202C378.112 205.815 381.879 206.032 384.976 205.456C387.8 204.936 390.544 203.984 393.088 202.651C394.311 202.009 396.073 201.614 396.846 200.47C402.359 201.62 408.252 196.56 407.945 190.937C407.805 188.339 406.582 185.935 405.368 183.635C398.982 171.547 392.057 159.744 384.617 148.277C379.977 141.117 375.076 134.019 368.79 128.25C362.504 122.478 353.869 116.749 345.374 115.931C350.558 109.337 348.27 98.8038 341.747 93.5279C339.751 91.9123 337.299 90.6618 334.731 90.7744C331.417 90.9204 328.609 93.2815 326.558 95.892C322.487 101.083 320.367 107.77 320.698 114.361C309.38 115.611 299.78 123.193 291.291 130.785C282.799 138.376 274.776 146.834 264.553 151.852C248.238 159.86 229.067 157.91 210.918 156.924C195.422 156.087 164.144 158.406 145.538 174.893C155.46 162.425 165.494 147.051 171.717 134.491C182.606 112.499 181.073 85.4772 170.311 63.4213C159.552 41.3654 140.326 24.1169 118.474 12.9565C100.833 3.94434 80.928 -1.4137 61.1967 0.32666C41.4623 2.06705 21.9926 11.4596 10.385 27.5124C-1.22256 43.5652 -3.77835 66.4213 6.18925 83.5421C11.2035 92.1618 18.9135 98.9347 24.1802 107.402C35.6935 125.91 33.9683 149.819 27.8466 170.74C21.7248 191.658 11.6507 211.402 7.30589 232.761Z" fill="black"/>
<path d="M411.646 223.387C412.903 220.95 413.46 218.157 413.235 215.425C415.699 215.556 416.84 212.172 415.626 210.027C414.412 207.879 411.713 207.036 409.249 206.969C407.082 206.915 404.901 207.316 402.896 208.144C403.303 206.464 402.391 204.264 400.952 203.312C399.512 202.357 397.285 202.698 396.397 204.182C396.312 205.731 396.232 207.283 396.147 208.831C393.427 209.169 390.914 210.684 389.085 212.735C388.054 213.894 387.229 215.41 387.467 216.946C387.704 218.483 389.402 219.806 390.829 219.189C391.443 223.01 392.377 227.017 393.765 230.635C393.993 231.237 394.249 231.852 394.711 232.302C395.247 232.822 395.995 233.048 396.713 233.261C400.017 234.228 403.726 235.159 406.763 233.531C409.495 232.068 412.626 226.33 411.646 223.387Z" fill="black"/>
</svg>
